# xmcd
#
# Track frame offsets:
#	150
#	12879
#	25508
#	45075
#	57012
#	70092
#	85193
#	97982
#	106812
#	122772
#	146153
#
# Disc length: 2285 seconds
#
# Revision: 0
# Processed by: cddbd v1.5.2PL0 Copyright (c) Steve Scherf et al.
# Submitted via: EasyCDDAExtractor 11.0.2.1
#
DISCID=7b08eb0b
DTITLE=Canned Heat - hallelujah
DYEAR=1900
DGENRE=
TTITLE0=Same All Over
TTITLE1=Change My Ways
TTITLE2=Canned Heat
TTITLE3=Sic Em Pigs
TTITLE4=I´m Her Man
TTITLE5=Time Was
TTITLE6=Do Not Enter
TTITLE7=Big Fat
TTITLE8=Huautla
TTITLE9=Get Off My Back
TTITLE10=Down In The Gutter , But Free
EXTD=
EXTT0=
EXTT1=
EXTT2=
EXTT3=
EXTT4=
EXTT5=
EXTT6=
EXTT7=
EXTT8=
EXTT9=
EXTT10=
PLAYORDER=
